<svg width="580" height="580" xmlns="http://www.w3.org/2000/svg">
 <!-- Created with Method Draw - http://github.com/duopixel/Method-Draw/ -->
 <defs>
  <radialGradient spreadMethod="pad" id="svg_8">
   <stop offset="0" stop-color="#84D3DB"/>
   <stop offset="1" stop-color="#7b2c24"/>
  </radialGradient>
 </defs>
 <g>
  <title>background</title>
  <rect fill="#00000000" id="canvas_background" height="582" width="582" y="-1" x="-1"/>
  <g display="none" overflow="visible" y="0" x="0" height="100%" width="100%" id="canvasGrid">
   <rect fill="url(#gridpattern)" stroke-width="0" y="0" x="0" height="100%" width="100%"/>
  </g>
 </g>
 <g>
  <title>Layer 1</title>
  <path stroke="#000" id="svg_1" d="m289.75,0.75001c-159.61215,0 -289,129.38785 -289,289c0,159.61215 129.38785,289 289,289c159.61215,0 289,-129.38785 289,-289c0,-159.61215 -129.38785,-289 -289,-289zm227.3981,316.63933c0.01988,0.03977 0.07954,0.03977 0.09942,0.07954c-0.43746,3.71838 -1.07376,7.35723 -1.69017,11.01596c-0.29827,-0.23861 -0.67607,-0.49711 -0.93457,-0.71584c-2.04809,-1.7896 -5.05064,-2.5452 -6.32324,-2.28671c-3.12185,0.6363 4.55353,6.06474 5.30914,6.80047c0.17896,0.17896 0.61642,0.59653 1.23283,1.1533c-20.46106,105.62598 -113.52009,185.68061 -225.07163,185.68061c-81.98342,0 -153.82579,-43.34801 -194.38998,-108.19107c2.44578,-0.31815 4.77226,-0.31815 5.56763,-1.51122c1.0141,-1.5311 2.02821,-4.79214 3.53942,-6.58174c1.5311,-1.76971 3.28093,-4.55353 2.52532,-5.80625c-0.77549,-1.2726 2.00833,-6.84024 1.74983,-8.33157c-0.2585,-1.51122 -2.52532,-5.09041 1.2726,-8.09295s7.83446,-7.59584 8.09295,-8.82868c0.23861,-1.25272 3.30081,-6.58174 3.02243,-9.10706c-0.23861,-2.52532 -3.02243,-5.56763 -4.77226,-6.32324c-1.7896,-0.73572 -5.56763,-0.99422 -7.07885,-3.00255c-1.5311,-2.04809 -5.80625,-4.03654 -7.31746,-3.53942c-1.51122,0.49711 -4.05642,0.99422 -6.06474,-0.29827c-2.02821,-1.23283 -5.30914,-2.76393 -6.56185,-3.75815c-1.29249,-0.99422 -4.55353,-1.74983 -6.06474,-1.74983c-1.5311,0 -1.29249,-1.03399 -3.53942,2.00833c-2.26682,3.04231 0,4.05642 -4.05642,3.51954c-4.05642,-0.45734 0.49711,-0.71584 2.8037,-3.75815c2.24694,-3.02243 -0.2585,-4.81203 -2.8037,-4.03654c-2.50544,0.75561 -0.75561,2.28671 -4.79214,3.04231c-4.03654,0.71584 -4.03654,-1.7896 -1.51122,-2.28671s7.05897,-2.76393 7.05897,-3.77804c0,-1.0141 -0.49711,-3.79792 -2.52532,-3.79792s-1.5311,-2.50544 -4.55353,-5.78636c-1.82937,-2.00833 -3.89734,-3.26104 -5.94544,-4.05642c-1.7896,-11.51307 -2.98266,-23.20511 -2.98266,-35.21529c0,-56.55126 20.6599,-108.29049 54.70201,-148.29792c0.47723,-0.39769 0.95445,-0.67607 1.37202,-0.71584c1.67029,-0.17896 6.16417,-0.49711 10.14105,-1.17318c4.01665,-0.67607 8.31168,-3.20139 9.72348,-3.04231c1.37202,0.15908 4.79214,0.15908 3.6985,-0.83515c-1.11353,-1.13341 -2.66451,-3.47977 -4.9711,-3.47977s-0.15908,-3.6985 0.45734,-3.6985c0.59653,0 3.6985,0.49711 3.53942,2.18728c-0.13919,1.69017 0.93457,3.85758 3.99677,3.20139c3.10197,-0.67607 2.62474,-3.22127 2.02821,-3.87746c-0.6363,-0.67607 -1.09364,-2.36624 -1.69017,-3.53942c-0.61642,-1.19306 -0.45734,-2.70428 2.78382,-3.04231c3.22127,-0.31815 7.67538,1.33226 7.51631,-1.35214s0,-5.56763 0.91468,-7.07885c0.93457,-1.49133 2.94289,-2.52532 1.84925,-3.02243c-1.05387,-0.49711 -2.44578,0.67607 -3.53942,-1.84925c-1.07376,-2.52532 0.93457,-4.37457 2.14752,-5.38867c0.39769,-0.29827 1.33226,-1.19306 2.46567,-2.22705c37.40257,-26.48603 82.93787,-42.2146 132.17167,-42.2146c63.88861,0 121.73235,26.30707 163.33054,68.60121c-0.15908,0.43746 -0.19884,1.03399 -0.61642,1.11353c-1.5311,0.2585 -3.30081,1.25272 -3.55931,-1.0141c-0.2585,-2.26682 -0.2585,-6.58174 -2.02821,-4.03654c-1.76971,2.52532 -2.52532,2.52532 -2.52532,3.79792c0,1.25272 1.51122,2.52532 1.0141,4.79214c-0.51699,2.26682 -0.51699,3.79792 0.27838,3.79792c0.71584,0 2.50544,-2.28671 4.75237,-2.8037c2.30659,-0.49711 6.34313,-1.74983 6.60162,0.51699c0.2585,2.28671 2.76393,3.02243 0.2585,4.03654c-2.5452,1.0141 -5.30914,0.51699 -5.82613,-1.0141c-0.49711,-1.5311 -2.26682,-1.5311 -4.03654,-0.2585c-1.74983,1.25272 -5.54775,5.80625 -5.54775,5.80625s-6.08463,2.76393 -6.82035,2.26682c-0.79538,-0.49711 2.00833,-3.28093 4.03654,-4.53365c2.02821,-1.2726 3.53942,-4.05642 2.78382,-4.81203c-0.75561,-0.75561 -1.74983,-5.54775 -1.25272,-6.82035c0.49711,-1.25272 2.76393,-3.02243 0.2585,-4.29503c-2.52532,-1.25272 -4.31492,-2.78382 -6.32324,-3.53942s-4.29503,3.02243 -6.06474,4.05642c-1.76971,1.0141 -1.51122,2.26682 -3.79792,2.52532c-2.26682,0.2585 -3.75815,3.28093 0,5.05064c3.79792,1.76971 5.07052,3.02243 4.05642,4.05642c-1.0141,1.0141 -5.30914,-0.49711 -5.30914,-0.49711s-3.28093,-1.51122 -5.32902,-1.51122c-2.00833,0 -4.55353,-1.25272 -6.56185,-1.51122c-2.02821,-0.2585 -6.08463,-0.2585 -7.05897,0.75561c-1.0141,1.0141 -3.55931,4.03654 -5.56763,3.02243c-2.00833,-1.0141 -2.00833,-2.02821 -4.79214,-1.0141c-2.78382,1.0141 -5.54775,-0.75561 -7.05897,0.75561c-1.5311,1.51122 -0.2585,1.51122 -5.07052,0c-4.79214,-1.51122 -3.75815,1.0141 -8.33157,1.76971s-7.31746,-0.75561 -8.59006,0.75561c-1.2726,1.5311 -3.04231,4.31492 -3.77804,2.52532c-0.75561,-1.74983 2.50544,-4.79214 1.23283,-5.80625c-1.23283,-1.0141 -6.56185,-0.49711 -7.29758,0.2585c-0.77549,0.75561 -0.27838,3.53942 0.21873,4.55353c0.51699,0.99422 1.2726,5.05064 -0.21873,4.29503c-1.5311,-0.75561 -1.2726,-3.30081 -2.8037,-3.02243c-1.51122,0.2585 -3.28093,1.0141 -4.03654,1.5311c-0.75561,0.49711 -3.79792,0.49711 -4.55353,1.51122c-0.73572,1.0141 0.27838,3.79792 -1.0141,4.03654c-1.25272,0.2585 -2.26682,1.2726 -5.05064,-0.49711c-2.78382,-1.76971 -2.78382,-0.75561 -3.53942,-0.23861c-0.75561,0.49711 -4.29503,2.52532 -4.55353,0.23861c-0.2585,-2.26682 0.49711,-3.02243 -1.76971,-4.55353c-2.28671,-1.51122 -0.51699,-1.51122 2.52532,-0.49711c3.02243,0.99422 6.82035,1.49133 12.3681,-0.2585c5.56763,-1.76971 7.85434,-2.52532 5.56763,-3.53942c-2.28671,-0.99422 -4.55353,-2.00833 -8.07307,-2.52532c-3.55931,-0.49711 -8.35145,-0.49711 -13.91909,-2.52532c-5.54775,-2.02821 -6.82035,-2.78382 -9.08717,-3.28093c-2.28671,-0.51699 -16.16602,-2.78382 -22.50915,-1.76971c-6.30336,1.0141 -23.7221,5.56763 -24.75609,6.32324s-2.5452,3.77804 -5.80625,6.32324c-3.28093,2.52532 -9.34567,8.33157 -14.1577,9.34567c-4.79214,1.0141 -10.35978,5.05064 -10.35978,6.06474c0,1.0141 2.00833,4.81203 1.51122,5.56763c-0.49711,0.75561 0.99422,4.55353 3.79792,5.56763c2.76393,0.99422 7.57596,0.75561 7.81457,-0.77549c0.27838,-1.51122 4.05642,-4.79214 4.31492,-2.52532c0.2585,2.28671 2.78382,5.80625 2.26682,7.31746c-0.49711,1.5311 0,3.04231 1.7896,2.78382c1.74983,-0.23861 11.11538,-2.26682 11.11538,-2.26682s3.04231,-1.2726 2.52532,-3.30081c-0.51699,-2.00833 3.30081,-4.79214 4.03654,-5.54775c0.75561,-0.75561 3.53942,-3.79792 0.27838,-4.79214c-3.3207,-1.0141 -5.82613,-1.2726 -2.28671,-4.29503s5.80625,0 10.35978,-4.55353c4.55353,-4.55353 -1.0141,-5.80625 3.79792,-6.06474c4.79214,-0.2585 9.86267,-0.49711 8.82868,1.0141c-0.99422,1.51122 -6.80047,4.81203 -10.10128,6.32324c-3.30081,1.5311 -2.78382,4.29503 -1.51122,5.80625c1.25272,1.51122 1.7896,5.05064 4.05642,4.55353c2.24694,-0.49711 5.05064,-2.26682 7.55608,-2.00833c2.5452,0.23861 7.61573,-0.2585 8.35145,-0.2585c0.77549,0 4.29503,3.53942 2.26682,4.03654c-2.00833,0.49711 -4.55353,0.2585 -8.84856,0.49711c-4.27515,0.2585 -9.06729,0.2585 -9.06729,1.0141c0,0.77549 5.80625,2.52532 3.77804,3.79792c-2.02821,1.25272 -4.03654,-0.2585 -6.58174,-0.51699c-2.52532,-0.23861 -4.03654,3.30081 -4.79214,5.30914c-0.77549,2.02821 1.25272,5.56763 -2.52532,4.29503c-3.79792,-1.25272 -6.58174,-1.25272 -7.57596,-0.75561c-1.0141,0.49711 -4.03654,1.51122 -6.58174,2.26682c-2.50544,0.75561 -1.51122,-1.25272 -4.81203,-1.25272c-3.26104,0 -3.26104,0 -3.26104,0l-2.04809,0.2585c0,0 -2.00833,-1.25272 -2.26682,-3.28093c-0.2585,-2.02821 0.99422,-4.29503 -0.2585,-4.79214c-1.2726,-0.51699 -5.80625,0.23861 -6.56185,1.74983c-0.75561,1.51122 -1.5311,4.29503 -0.51699,5.56763c1.03399,1.25272 4.05642,3.77804 1.2726,3.02243c-2.78382,-0.75561 -6.30336,-1.0141 -8.33157,0.51699c-2.00833,1.51122 -5.54775,4.79214 -5.54775,4.79214s-6.32324,0.49711 -6.32324,2.02821c0,1.5311 0,3.53942 -2.26682,3.79792c-2.28671,0.2585 -5.32902,0.99422 -8.35145,1.51122c-3.04231,0.49711 -2.76393,1.74983 -6.30336,2.02821s-4.05642,1.76971 -0.75561,2.26682c3.28093,0.49711 8.31168,2.52532 8.57018,4.79214c0.27838,2.26682 -0.2585,4.81203 -1.51122,7.07885c-0.85503,1.57087 -6.06474,0.51699 -9.10706,0.51699c-3.02243,0 -9.06729,-1.0141 -11.61249,0c-2.52532,1.0141 -2.02821,6.06474 -1.2726,8.33157c0.77549,2.26682 -0.23861,3.53942 -1.25272,4.29503c-1.0141,0.75561 -1.29249,3.02243 0,4.05642c1.25272,1.0141 2.26682,3.28093 3.30081,3.53942c1.0141,0.2585 4.27515,-0.75561 5.54775,0.49711c1.2726,1.2726 2.52532,4.29503 3.28093,3.53942c0.77549,-0.75561 1.76971,-4.03654 3.04231,-3.30081c1.2726,0.77549 4.29503,-0.23861 6.58174,-0.49711s3.51954,-2.78382 5.80625,-4.05642c2.26682,-1.25272 0.99422,-1.25272 0.2585,-2.78382c-0.75561,-1.51122 2.26682,-3.28093 4.05642,-5.05064c1.74983,-1.76971 5.03076,-0.2585 5.80625,-2.28671c0.75561,-2.02821 1.0141,-5.54775 3.00255,-5.30914c2.04809,0.2585 4.83191,1.51122 6.58174,1.51122c1.76971,0 5.54775,-2.78382 6.60162,-3.28093c0.99422,-0.49711 4.79214,-0.2585 5.30914,2.02821c0.49711,2.26682 4.79214,5.05064 5.80625,5.54775c1.0141,0.49711 7.57596,2.52532 8.60995,3.28093c0.99422,0.75561 2.50544,3.04231 3.02243,5.05064c0.49711,2.02821 2.26682,2.02821 2.5452,0.2585c0.23861,-1.76971 -1.29249,-5.05064 0.49711,-4.81203c1.74983,0.2585 3.79792,-0.51699 3.79792,-0.51699s-4.83191,-3.28093 -6.58174,-4.03654c-1.74983,-0.75561 -5.07052,-2.26682 -6.58174,-4.79214c-1.51122,-2.52532 -5.30914,-3.04231 -5.05064,-5.54775c0.2585,-2.52532 3.79792,-1.0141 5.80625,1.0141c2.02821,2.02821 7.07885,4.79214 8.84856,6.56185c1.74983,1.76971 4.55353,2.52532 5.30914,4.81203c0.77549,2.26682 3.02243,4.79214 3.77804,5.80625c0.75561,1.0141 3.28093,6.58174 4.05642,7.83446c0.75561,1.25272 3.28093,-0.23861 4.55353,-1.25272c1.25272,-1.0141 3.55931,-1.51122 3.79792,-3.53942c0.2585,-2.02821 -3.04231,-3.53942 -4.03654,-4.29503c-1.0141,-0.75561 2.52532,-1.51122 3.79792,-2.52532c1.25272,-0.99422 3.51954,-2.78382 4.53365,-1.25272c1.0141,1.5311 0.51699,7.57596 1.0141,8.59006c0.49711,1.0141 5.54775,2.52532 6.58174,3.79792c0.99422,1.25272 5.30914,1.76971 6.04486,1.0141c0.77549,-0.75561 4.81203,0.51699 5.84602,0.75561c0.97434,0.2585 4.01665,-0.49711 6.04486,-0.99422c2.04809,-0.49711 4.05642,-2.02821 3.79792,1.25272c-0.2585,3.28093 -1.0141,8.33157 -3.55931,10.85689c-2.52532,2.52532 -1.51122,3.79792 -4.01665,3.79792c-1.19306,0 -2.24694,0 -3.10197,0.41757c-0.81526,-1.29249 -1.94867,-2.32648 -3.47977,-1.92879c-3.02243,0.75561 -6.84024,0.75561 -9.34567,3.77804c-2.5452,3.04231 -3.53942,3.28093 -4.05642,2.26682c-0.49711,-1.0141 7.33735,-5.30914 6.30336,-6.58174c-0.99422,-1.25272 -7.05897,-0.75561 -10.35978,-0.75561c-3.30081,0 -6.06474,-2.02821 -8.60995,-2.52532c-2.50544,-0.49711 -5.80625,2.52532 -8.31168,5.05064c-2.5452,2.52532 -4.29503,0.75561 -6.58174,0.75561c-2.28671,0 -6.58174,-3.28093 -6.58174,-3.28093s-4.29503,-1.76971 -6.06474,-1.76971c-1.74983,0 -5.30914,-3.28093 -6.32324,-3.28093c-0.99422,0 -3.77804,-2.28671 -1.74983,-3.30081c2.00833,-0.99422 4.01665,1.0141 2.00833,-4.55353c-2.00833,-5.54775 -6.56185,-4.29503 -8.33157,-3.53942c-1.74983,0.77549 -14.39631,0.49711 -15.41042,0.49711c-1.0141,0 -8.33157,2.52532 -10.59839,3.53942c-2.30659,1.0141 -6.32324,2.28671 -7.33735,2.78382c-1.0141,0.49711 -6.32324,-1.0141 -8.60995,0.2585c-3.00255,1.67029 -5.78636,4.29503 -6.56185,4.29503c-0.75561,0 -3.04231,1.76971 -4.55353,5.56763c-1.5311,3.77804 0.2585,7.05897 -2.5452,8.33157c-2.76393,1.25272 -7.83446,4.05642 -9.84278,6.06474c-2.02821,2.00833 -4.55353,9.10706 -7.05897,12.38799c-2.52532,3.28093 0,6.30336 0.49711,8.33157c0.49711,2.00833 2.26682,5.80625 -0.49711,9.36556c-2.78382,3.53942 -2.52532,5.28925 -3.79792,5.54775c-1.25272,0.2585 1.25272,1.25272 1.74983,3.77804c0.49711,2.5452 -2.26682,5.07052 2.5452,7.33735c4.79214,2.24694 7.05897,4.31492 8.31168,7.29758c1.2726,3.04231 7.59584,8.09295 7.59584,8.09295s4.55353,4.0763 6.84024,5.82613c2.26682,1.76971 3.02243,0.75561 3.51954,-0.99422c0.49711,-1.7896 3.53942,-2.06798 7.05897,-2.06798c3.53942,0 6.06474,0.79538 9.60417,0.27838c3.53942,-0.49711 7.07885,-2.8037 8.35145,-3.30081c1.25272,-0.49711 5.54775,-3.26104 8.80879,-1.25272c3.30081,2.04809 2.8037,4.79214 4.57341,6.60162c1.74983,1.74983 4.77226,0.73572 7.05897,-1.0141c2.26682,-1.7896 1.2726,-1.03399 4.03654,0.49711c2.78382,1.49133 4.05642,3.00255 1.5311,5.30914c-2.5452,2.24694 -1.0141,5.82613 -2.5452,9.34567c-1.51122,3.53942 -1.25272,4.03654 1.5311,5.52787c2.78382,1.51122 7.83446,10.89666 9.34567,12.68625c1.5311,1.74983 -0.49711,6.80047 1.2726,9.84278c1.76971,3.00255 3.53942,5.05064 1.5311,6.58174c-2.04809,1.49133 -5.56763,4.29503 -5.80625,9.34567s1.0141,8.57018 2.02821,10.35978s3.51954,6.58174 4.79214,8.33157c1.2726,1.76971 2.78382,6.06474 3.02243,8.84856c0.2585,2.78382 -0.47723,6.08463 0.77549,7.57596c1.2726,1.51122 2.02821,3.79792 4.29503,5.80625c2.28671,2.04809 3.02243,6.32324 3.02243,6.32324s0.77549,1.76971 1.0141,4.55353c0.23861,2.78382 0.49711,4.53365 3.02243,5.80625c2.50544,1.25272 4.27515,1.51122 5.56763,0.2585c1.25272,-1.25272 7.57596,-1.5311 10.85689,-1.25272c3.28093,0.2585 7.05897,-1.49133 10.35978,-3.77804s8.09295,-8.33157 9.86267,-10.10128c1.76971,-1.7896 5.80625,-5.07052 5.32902,-7.07885c-0.49711,-2.00833 -1.5311,-4.03654 0.47723,-5.05064c2.02821,-1.03399 6.84024,-3.02243 7.07885,-4.55353c0.2585,-1.5311 -1.7896,-7.85434 -2.28671,-9.08717c-0.47723,-1.2726 1.2726,-3.57919 3.28093,-6.08463c2.04809,-2.5452 8.37134,-4.29503 9.36556,-5.30914c1.0141,-1.05387 3.79792,-5.30914 4.31492,-8.60995c0.47723,-3.3207 -1.0141,-7.33735 0,-9.08717c0.99422,-1.7896 0.2585,-3.28093 -2.04809,-5.32902c-2.26682,-2.02821 -1.76971,-8.09295 -2.52532,-9.08717c-0.73572,-1.0141 -0.2585,-6.34313 1.25272,-6.86012c1.51122,-0.45734 4.81203,-5.54775 6.84024,-7.81457c2.02821,-2.26682 7.83446,-9.34567 10.61827,-9.86267c2.76393,-0.49711 7.05897,-4.55353 7.31746,-6.82035c0.2585,-2.28671 7.55608,-10.87677 7.83446,-12.6266c0.2585,-1.7896 3.30081,-8.35145 2.02821,-9.88255c-1.23283,-1.51122 -11.11538,2.28671 -12.3681,2.8037c-1.2726,0.49711 -4.79214,2.52532 -8.86845,2.24694c-4.01665,-0.2585 -2.26682,-3.51954 -2.52532,-5.05064c-0.23861,-1.51122 -4.53365,-7.31746 -5.54775,-7.57596c-1.0141,-0.23861 -4.03654,-3.30081 -5.30914,-6.30336c-1.25272,-3.04231 -3.02243,-6.82035 -5.05064,-9.10706c-2.02821,-2.26682 -3.28093,-7.55608 -5.32902,-11.11538c-2.00833,-3.53942 -3.75815,-8.09295 -5.54775,-11.37388c-0.41757,-0.81526 -0.8948,-1.57087 -1.33226,-2.32648c2.34636,-0.57665 5.74659,-1.63052 6.16417,-0.17896c0.47723,1.74983 3.28093,5.54775 3.77804,8.33157s3.28093,1.76971 3.53942,4.29503c0.27838,2.5452 2.78382,8.60995 3.77804,9.34567c1.03399,0.75561 5.56763,4.81203 6.32324,6.32324c0.75561,1.51122 1.76971,3.53942 2.52532,7.33735c0.75561,3.77804 1.51122,8.82868 3.55931,9.58429c2.02821,0.75561 8.82868,-1.2726 10.10128,-2.02821s9.58429,-4.81203 12.6266,-5.07052c3.04231,-0.23861 3.55931,-2.28671 7.31746,-3.02243c3.79792,-0.75561 6.58174,-3.51954 9.10706,-5.56763c2.52532,-2.00833 5.56763,-7.05897 6.56185,-8.82868c1.03399,-1.74983 3.55931,-3.02243 2.28671,-5.03076c-1.25272,-2.04809 -6.58174,-5.05064 -8.60995,-5.32902c-2.02821,-0.23861 -1.76971,-3.53942 -3.02243,-3.53942s-1.0141,1.74983 -3.53942,3.04231c-2.52532,1.25272 -5.07052,3.77804 -6.84024,3.28093s0.51699,-1.76971 -2.24694,-4.03654s-3.81781,-2.78382 -3.81781,-4.53365c0,-1.76971 -5.52787,-5.07052 -6.04486,-7.59584c-0.51699,-2.52532 3.77804,-6.06474 5.05064,-3.77804c1.25272,2.26682 2.28671,5.80625 5.54775,7.31746c3.28093,1.51122 6.32324,4.05642 7.85434,4.55353c1.51122,0.49711 5.30914,-2.78382 6.56185,-2.26682c1.25272,0.47723 3.79792,5.03076 6.08463,5.80625c2.24694,0.75561 9.84278,1.0141 11.11538,1.0141s6.56185,0.2585 7.57596,-1.25272c1.0141,-1.51122 1.76971,-1.51122 3.04231,-1.51122c1.23283,0 3.51954,4.55353 5.30914,5.05064c1.76971,0.49711 5.05064,0.2585 4.79214,3.55931c-0.23861,3.26104 1.51122,6.06474 3.28093,6.30336c1.7896,0.23861 5.82613,-3.79792 5.82613,-3.79792s0,6.32324 -0.23861,8.60995c-0.27838,2.24694 2.76393,10.61827 2.76393,10.61827s3.77804,7.81457 4.79214,9.58429s5.30914,7.05897 5.30914,9.34567c0,2.28671 0.49711,5.82613 2.04809,5.82613c1.51122,0 3.02243,-4.03654 4.77226,-6.58174c1.80948,-2.50544 2.30659,-6.06474 3.04231,-8.59006c0.75561,-2.52532 0.75561,-7.07885 0.75561,-8.82868c0,-1.7896 1.49133,-3.30081 5.07052,-4.81203c3.53942,-1.51122 6.04486,-5.80625 9.06729,-8.09295c3.04231,-2.28671 2.8037,-6.06474 8.86845,-6.06474c6.06474,0 5.52787,0 7.05897,-1.5311c1.51122,-1.51122 3.00255,-2.52532 3.77804,0.2585c0.75561,2.78382 5.05064,6.82035 5.80625,7.83446c0.75561,1.03399 2.26682,3.79792 2.04809,6.84024c-0.2585,3.02243 0.23861,6.56185 1.49133,6.56185s3.79792,-4.29503 3.79792,-4.29503s5.54775,-3.75815 5.30914,0.2585c-0.27838,4.03654 0.49711,8.33157 0.49711,10.837c0,1.05387 0.83515,2.6844 1.74983,4.17573c-0.09942,1.17318 -0.07954,2.36624 -0.17896,3.53942c-1.80948,0.47723 -1.82937,3.93711 -0.85503,5.18983zm-140.26462,-105.90436c1.51122,0.99422 2.02821,2.52532 3.02243,4.03654c1.03399,1.51122 2.78382,0.99422 4.03654,2.26682c1.25272,1.2726 -3.53942,2.78382 -1.49133,4.29503c2.00833,1.5311 3.00255,7.57596 3.28093,9.10706c0.2585,1.51122 -5.54775,2.26682 -7.33735,2.02821c-1.76971,-0.2585 -7.03908,-2.02821 -8.84856,-2.52532c-1.76971,-0.51699 -2.76393,-6.82035 -0.49711,-6.58174c2.30659,0.2585 2.8037,-0.49711 5.30914,-2.76393c2.5452,-2.28671 -3.75815,-3.30081 -5.52787,-3.79792c-1.76971,-0.49711 -5.32902,-6.06474 -6.58174,-7.83446c-1.23283,-1.76971 -0.27838,-4.53365 2.8037,-6.58174c1.51122,-1.0141 5.54775,1.25272 7.57596,0c2.00833,-1.25272 4.03654,-2.78382 4.79214,-3.28093c0.77549,-0.49711 5.82613,0.75561 6.56185,2.26682c0.77549,1.51122 3.79792,3.79792 2.8037,4.55353c-1.03399,0.75561 -5.58752,1.51122 -7.07885,0c-1.49133,-1.5311 -5.07052,0.23861 -5.32902,3.02243c-0.27838,2.8037 1.0141,0.77549 2.50544,1.7896zm-69.73462,4.29503c-1.5311,-0.49711 0.49711,-3.53942 2.02821,-4.55353c1.49133,-1.0141 3.26104,-3.53942 4.79214,-6.06474c1.51122,-2.52532 3.53942,-2.78382 4.79214,-2.52532c1.25272,0.2585 4.03654,4.79214 4.79214,6.32324c0.75561,1.51122 3.28093,-0.51699 4.31492,-1.0141c0.99422,-0.49711 2.52532,-2.02821 2.78382,-3.28093s2.52532,-2.02821 5.05064,-2.02821s0.2585,2.02821 -1.51122,2.52532c-1.7896,0.49711 -0.75561,1.5311 2.24694,2.52532c3.04231,1.0141 5.82613,3.79792 9.12694,5.54775c3.28093,1.76971 3.77804,5.30914 1.74983,5.80625c-2.00833,0.49711 -8.07307,1.0141 -10.35978,0.75561c-2.26682,-0.2585 -5.05064,-2.52532 -8.33157,-3.04231c-3.28093,-0.49711 -7.33735,-0.2585 -8.60995,1.5311s-5.80625,0.99422 -7.85434,0.99422c-2.02821,0 -4.53365,2.52532 -5.03076,1.5311c0.01988,0.01988 1.5311,-4.51376 0.01988,-5.03076zm8.59006,-56.1138c1.25272,-3.53942 8.33157,0.75561 7.05897,2.52532c-1.25272,1.7896 -7.91399,-0.11931 -7.05897,-2.52532zm9.84278,181.46512c1.25272,2.02821 -2.78382,8.57018 -5.05064,8.09295c-2.24694,-0.53688 -1.51122,-6.32324 -0.75561,-7.59584c0.75561,-1.2726 5.15006,-1.59075 5.80625,-0.49711zm-91.72678,-117.51686c0.49711,-1.0141 -0.77549,-3.04231 -2.52532,-0.2585c-0.59653,0.97434 2.02821,1.2726 2.52532,0.2585zm151.59873,-92.24377c2.8037,1.51122 6.74081,2.12763 8.60995,0.2585c1.51122,-1.51122 0.2585,-4.05642 -0.99422,-4.29503c-1.2726,-0.2585 -2.06798,-2.28671 1.23283,-4.03654c3.28093,-1.76971 6.82035,-4.05642 10.61827,-4.55353c3.77804,-0.49711 12.3681,-0.75561 15.39053,0c3.02243,0.77549 7.59584,-3.30081 8.84856,-5.05064s-4.03654,-3.02243 -5.54775,-1.0141c-1.5311,2.02821 -8.82868,1.51122 -10.35978,1.0141c-1.51122,-0.49711 -13.6407,2.02821 -16.14614,2.02821c-2.5452,0 -3.55931,3.02243 -7.07885,4.55353c-3.55931,1.51122 -8.35145,3.79792 -10.12116,4.55353c-1.74983,0.75561 -3.51954,3.77804 -2.00833,4.29503c1.51122,0.49711 4.79214,0.73572 7.55608,2.24694zm-132.64889,92.24377c1.2726,-1.76971 -1.0141,-4.31492 -2.26682,-4.31492c-2.38613,0 -3.53942,3.79792 -2.04809,5.05064c1.5311,1.29249 3.04231,1.03399 4.31492,-0.73572zm11.37388,6.82035c1.2726,0.49711 2.26682,2.02821 3.28093,2.26682c1.03399,0.2585 4.31492,0 3.3207,-2.52532s-3.3207,-2.52532 -4.05642,-2.52532c-0.75561,0 -4.03654,-0.75561 -5.30914,0c-0.93457,0.55676 1.49133,2.28671 2.76393,2.78382zm-67.7263,-40.942c2.00833,0.2585 4.31492,-1.25272 6.06474,-2.00833c1.74983,-0.75561 4.29503,-2.26682 4.29503,-4.55353c0,-2.26682 -0.49711,-4.29503 -1.5311,-5.30914c-1.0141,-1.0141 -2.78382,-1.2726 -4.29503,-1.0141c-2.28671,0.39769 -2.52532,2.78382 -4.03654,2.78382c-1.51122,0 -3.28093,0.49711 -2.78382,2.26682s1.5311,3.02243 0,3.77804c-1.51122,0.77549 0.23861,3.81781 2.28671,4.05642zm12.38799,-10.85689c2.52532,1.0141 7.83446,2.02821 5.80625,3.04231c-2.02821,1.0141 -5.56763,3.77804 -6.06474,5.30914s4.29503,3.04231 4.29503,3.04231s-1.5311,1.76971 -0.2585,2.26682c1.25272,0.49711 2.02821,-1.76971 4.03654,-1.76971c2.00833,0 6.04486,1.25272 8.07307,1.25272c2.04809,0 5.30914,-2.78382 5.05064,-4.55353c-0.2585,-1.76971 -2.78382,-4.55353 -5.05064,-5.56763c-2.24694,-1.0141 -4.79214,-5.56763 -6.30336,-6.58174c-1.51122,-1.0141 1.51122,-3.53942 -0.2585,-5.30914c-1.7896,-1.76971 -3.04231,-1.51122 -5.07052,-2.78382c-2.02821,-1.25272 -3.79792,0.2585 -5.05064,1.76971c-1.25272,1.51122 -2.78382,-0.2585 -4.31492,0.23861c-2.02821,0.69595 -1.25272,3.30081 -0.23861,4.55353c1.03399,1.29249 2.82359,4.0763 5.34891,5.09041zm254.48067,134.9356c-1.65041,0.73572 -3.04231,9.34567 0,10.35978c3.02243,1.03399 4.79214,-4.01665 3.79792,-5.30914c-1.03399,-1.23283 -1.5311,-6.06474 -3.79792,-5.05064zm-91.76655,64.94248c-3.16162,-0.8948 -3.51954,3.30081 -6.04486,6.08463c-2.5452,2.8037 -5.30914,5.05064 -6.30336,4.79214c-1.03399,-0.2585 -6.58174,1.76971 -4.81203,5.54775c1.76971,3.79792 1.51122,7.59584 -0.2585,9.38544c-1.76971,1.74983 1.51122,6.80047 1.03399,9.58429c-0.51699,2.76393 0.73572,4.55353 4.27515,4.55353s4.81203,-1.2726 6.32324,-4.55353c1.51122,-3.30081 1.74983,-6.58174 3.26104,-9.34567c1.5311,-2.8037 2.8037,-8.62983 3.55931,-10.14105c0.75561,-1.49133 2.26682,-6.28347 2.02821,-9.08717c-0.27838,-2.74405 -1.2726,-6.32324 -3.0622,-6.82035zm-193.33611,-231.89198c-1.37202,-1.19306 -4.55353,-2.02821 -6.08463,-2.18728c-1.51122,-0.15908 -3.02243,1.19306 -6.3829,1.19306c-3.34058,0 -5.54775,1.33226 -6.89989,0c-1.35214,-1.35214 -6.93966,-2.02821 -7.45665,-1.19306c-0.67607,1.13341 -2.00833,1.17318 -0.67607,3.53942c1.37202,2.34636 2.38613,3.6985 3.55931,3.53942s5.20972,-0.33803 5.72671,1.0141c0.49711,1.35214 1.86913,2.52532 4.7126,1.69017c2.88324,-0.83515 5.2296,-1.35214 5.88579,-2.36624c0.65619,-1.0141 5.2296,-1.17318 5.2296,-1.17318s3.71838,-2.88324 2.38613,-4.05642z" stroke-width="1.5" fill="url(#svg_8)"/>
 </g>
</svg>
